<?xml version="1.0" encoding="utf-8"?>
<!-- Generator: Adobe Illustrator 18.0.0, SVG Export Plug-In . SVG Version: 6.00 Build 0)  -->
<!DOCTYPE svg PUBLIC "-//W3C//DTD SVG 1.1//EN" "http://www.w3.org/Graphics/SVG/1.1/DTD/svg11.dtd" [
	<!ENTITY st0 "fill:none;stroke:#000000;stroke-width:80;stroke-linecap:round;stroke-linejoin:round;stroke-miterlimit:10;">
	<!ENTITY st1 "fill:none;stroke:#FFFFFF;stroke-width:10;stroke-linecap:round;stroke-linejoin:round;stroke-miterlimit:10;">
	<!ENTITY st2 "fill:url(#SVGID_1_);">
	<!ENTITY st3 "fill:#FFFFFF;">
	<!ENTITY st4 "fill:url(#SVGID_2_);">
	<!ENTITY st5 "fill:#FFA588;">
	<!ENTITY st6 "fill:#F1E425;">
	<!ENTITY st7 "fill:url(#SVGID_3_);">
]>
<svg version="1.1" id="Layer_1" xmlns="http://www.w3.org/2000/svg" xmlns:xlink="http://www.w3.org/1999/xlink" x="0px" y="0px"
	 viewBox="0 0 976.9 346.4" style="enable-background:new 0 0 976.9 346.4;" xml:space="preserve">
<g>
	<g>
		<linearGradient id="SVGID_1_" gradientUnits="userSpaceOnUse" x1="2.9644" y1="172.8813" x2="973.6517" y2="172.8813">
			<stop  offset="0" style="stop-color:#FFA588"/>
			<stop  offset="0.271" style="stop-color:#FCB371"/>
			<stop  offset="0.8357" style="stop-color:#F4D837"/>
			<stop  offset="1" style="stop-color:#F1E425"/>
		</linearGradient>
		<path style="&st2;" d="M877.1,342.8c-26.1,0-50.7-10.2-69.2-28.7L663.8,170c-14.5-14.5-24-32.6-27.4-52.3
			c-2-11.5-1.9-23.3,0.3-34.8h-42.6c-10.4,0-14.8,6.9-16.5,11c-1.7,4.1-3.5,12.1,3.9,19.5l62.3,62.3c14.5,14.5,24,32.6,27.4,52.3
			c3.2,18.2,1,37-6.1,54.4c-7.2,17.3-19,32.1-34.1,42.8c-16.4,11.5-35.8,17.6-56.3,17.6h-2c-26.1,0-50.7-10.2-69.2-28.7l-13.8-13.8
			c-6.6,9.7-14.8,18.1-24.4,24.8c-16.4,11.5-35.8,17.6-56.3,17.6c-26.1,0-50.7-10.2-69.2-28.7l-226-226c-3.4-3.4-7.9-5.2-12.6-5.2
			c-10.4,0-14.8,6.9-16.5,11s-3.5,12.1,3.9,19.5l62.3,62.3c14.5,14.5,24,32.6,27.4,52.3c3.2,18.2,1,37-6.1,54.4
			c-7.2,17.3-19,32.1-34.1,42.8c-16.4,11.5-35.8,17.6-56.3,17.6H53.3c-22.1,0-40-17.9-40-40s17.9-40,40-40h28.1
			c10.4,0,14.8-6.9,16.5-11c1.7-4.1,3.5-12.1-3.9-19.5L31.8,170c-14.5-14.5-24-32.6-27.4-52.3c-3.2-18.2-1-37,6.1-54.4
			c7.2-17.3,19-32.1,34.1-42.8C61,9,80.5,2.9,101,2.9c26.1,0,50.7,10.2,69.2,28.7l226,226c3.4,3.4,7.9,5.2,12.6,5.2
			c10.4,0,14.8-6.9,16.5-11c1.7-4.1,3.5-12.1-3.8-19.4L260.3,71.2c-15.6-15.6-15.6-40.9,0-56.6s40.9-15.6,56.6,0L478,175.7
			c0.1,0.1,0.1,0.1,0.2,0.2l81.7,81.7c3.4,3.4,7.9,5.2,12.6,5.2h2c10.4,0,14.8-6.9,16.5-11c1.7-4.1,3.5-12.1-3.9-19.5L524.9,170
			c-14.5-14.5-24-32.6-27.4-52.3c-3.2-18.2-1-37,6.1-54.4c7.2-17.3,19-32.1,34.1-42.8C554.1,9,573.6,2.9,594.1,2.9H757
			c22.1,0,40,17.9,40,40c0,22.1-17.9,40-40,40h-24c-10.4,0-14.8,6.9-16.5,11s-3.5,12.1,3.9,19.5l144.1,144.1
			c3.4,3.4,7.9,5.2,12.6,5.2c9.1,0,16.5-7.4,16.5-16.5c0-22.1,17.9-40,40-40s40,17.9,40,40C973.7,299.5,930.3,342.8,877.1,342.8z"/>
	</g>
	<g>
		<path style="&st3;" d="M877.1,307.8c-16.8,0-32.6-6.5-44.5-18.4L688.5,145.3c-18.3-18.3-23.5-44.6-13.6-68.5
			c5.1-12.2,13.4-22.1,23.7-28.8H594.1c-21.8,0-40.5,12.5-48.9,32.6s-3.9,42.2,11.5,57.6l62.3,62.3c18.3,18.3,23.5,44.6,13.6,68.5
			c-9.9,23.9-32.2,38.8-58.1,38.8h-2c-16.8,0-32.6-6.5-44.5-18.4l-57.5-57.5c2.6,12.1,1.4,24.9-3.6,37.1
			c-9.9,23.9-32.2,38.8-58.1,38.8c-16.8,0-32.6-6.5-44.5-18.4l-226-226c-10-10-23.3-15.5-37.4-15.5c-21.8,0-40.5,12.5-48.9,32.6
			c-8.3,20.1-3.9,42.2,11.5,57.6l62.3,62.3c18.3,18.3,23.5,44.6,13.6,68.5c-9.9,23.9-32.2,38.8-58.1,38.8H53.3c-2.8,0-5-2.2-5-5
			s2.2-5,5-5h28.1c21.8,0,40.5-12.5,48.9-32.6s3.9-42.2-11.5-57.6l-62.3-62.3C38.2,127,33,100.7,42.9,76.8
			C52.8,52.8,75,37.9,101,37.9c16.8,0,32.6,6.5,44.5,18.4l226,226c10,10,23.3,15.5,37.4,15.5c21.8,0,40.5-12.5,48.9-32.6
			c8.3-20.1,4-42.1-11.4-57.5L285.1,46.5c-2-2-2-5.1,0-7.1c2-2,5.1-2,7.1,0l161.1,161.1c0,0,0.1,0.1,0.1,0.1l81.7,81.7
			c10,10,23.3,15.5,37.4,15.5h2c21.8,0,40.5-12.5,48.9-32.6c8.3-20.1,3.9-42.2-11.5-57.6l-62.3-62.3c-18.3-18.3-23.5-44.6-13.6-68.5
			c9.9-23.9,32.2-38.8,58.1-38.8H757c2.8,0,5,2.2,5,5s-2.2,5-5,5h-24c-21.8,0-40.5,12.5-48.9,32.6c-8.3,20.1-3.9,42.2,11.5,57.6
			l144.1,144.1c10,10,23.3,15.5,37.4,15.5c28.4,0,51.5-23.1,51.5-51.5c0-2.8,2.2-5,5-5s5,2.2,5,5
			C938.7,280.2,911.1,307.8,877.1,307.8z"/>
	</g>
</g>
</svg>
