<svg enable-background="new 0 0 976.9 346.4" viewBox="0 0 976.9 346.4" xmlns="http://www.w3.org/2000/svg"><path d="m933.8 206.6c-22.1 0-40 17.9-40 40 0 9.1-7.4 16.5-16.5 16.5-4.8 0-9.3-1.9-12.6-5.2l-144.2-144.1c-7.3-7.3-5.6-15.5-3.9-19.6s6.1-11.2 16.5-11.2h24c22.1 0 40-17.9 40-40s-17.9-40-40-40h-162.9c-20.5 0-40 6.2-56.3 17.8-15.1 10.7-26.9 25.5-34.1 42.9-7.2 17.3-9.3 36.2-6.1 54.4 3.4 19.7 12.9 37.8 27.4 52.3l62.3 62.3c7.3 7.3 5.6 15.3 3.9 19.4s-6.1 11-16.5 11h-2c-4.8 0-9.3-1.8-12.6-5.2l-81.7-81.6c-.1-.1-.1-.1-.2-.2l-161.3-161.1c-15.6-15.6-40.9-15.6-56.6 0s-15.6 40.9 0 56.6l161.2 161.2c7.3 7.3 5.5 15.3 3.8 19.4s-6.1 11-16.5 11c-4.8 0-9.3-1.9-12.6-5.2l-226-226c-18.5-18.5-43.1-28.7-69.2-28.7-20.5 0-40 6.1-56.3 17.6-15.2 10.7-27 25.5-34.1 42.8-7.2 17.3-9.3 36.1-6.2 54.4 3.4 19.7 12.9 37.8 27.4 52.3l62.3 62.3c7.3 7.3 5.6 15.3 3.9 19.4s-6.1 11-16.5 11h-28.2c-22.1 0-40 17.9-40 40s17.9 40 40 40h28.1c20.5 0 40-6 56.3-17.5 15.1-10.7 26.9-25.4 34.1-42.8 7.2-17.3 9.3-36.1 6.1-54.4-3.4-19.7-12.9-37.8-27.4-52.3l-62.3-62.3c-7.3-7.3-5.6-15.4-3.9-19.5s6.1-11 16.5-11c4.8 0 9.3 1.9 12.6 5.2l226 226c18.5 18.5 43.1 28.7 69.2 28.7 20.5 0 40-6.1 56.3-17.6 9.6-6.8 17.8-15.2 24.4-24.8l13.8 13.7c18.5 18.5 43.1 28.6 69.2 28.6h2c20.5 0 40-6 56.3-17.5 15.1-10.7 26.9-25.4 34.1-42.8 7.2-17.3 9.3-36.1 6.1-54.4-3.4-19.7-12.9-37.8-27.4-52.3l-62.3-62.3c-7.3-7.3-5.6-15.5-3.9-19.6s6.1-11.2 16.5-11.2h42.6c-2.2 11-2.3 23.4-.3 34.9 3.4 19.7 12.9 37.9 27.4 52.3l144.5 144.2c18.5 18.5 43.1 28.7 69.2 28.7 53.2 0 96.5-43.3 96.5-96.5.1-22.1-17.8-40-39.9-40zm-56.5 101.5c-16.8 0-32.6-6.5-44.5-18.4l-144.1-144.1c-18.3-18.3-23.5-44.7-13.6-68.7 5.1-12.2 13.4-22 23.7-29h-104.6c-21.8 0-40.5 12.6-48.9 32.8s-3.9 42.3 11.5 57.7l62.3 62.3c18.3 18.3 23.5 44.5 13.6 68.5-9.9 23.9-32.2 38.8-58.1 38.8h-2c-16.8 0-32.6-6.5-44.5-18.3l-57.5-57.5c2.6 12.1 1.4 24.9-3.6 37.1-9.9 23.9-32.2 38.8-58.1 38.8-16.8 0-32.6-6.5-44.5-18.4l-226-226c-10-10-23.3-15.5-37.4-15.5-21.8 0-40.5 12.5-48.9 32.6-8.3 20.1-3.9 42.2 11.5 57.6l62.3 62.3c18.3 18.3 23.5 44.5 13.6 68.4s-32.2 38.7-58.1 38.7h-28c-2.8 0-5-2.2-5-5s2.2-5 5-5h28.1c21.8 0 40.5-12.4 48.9-32.6s3.9-42.2-11.5-57.6l-62.3-62.2c-18.3-18.1-23.5-44.4-13.6-68.3s32.2-38.8 58.1-38.8c16.8 0 32.6 6.5 44.5 18.4l226 226c10 10 23.3 15.5 37.4 15.5 21.8 0 40.5-12.5 48.9-32.6 8.3-20.1 4-42.1-11.4-57.5l-161.3-161.3c-2-2-2-5.1 0-7.1s5.1-2 7.1 0l161.1 161.1s.1.1.1.1l81.7 81.7c10 10 23.3 15.4 37.4 15.4h2c21.8 0 40.5-12.4 48.9-32.6 8.3-20.1 3.9-42.2-11.5-57.6l-62.3-62.2c-18.3-18.3-23.5-44.7-13.6-68.7 10-23.9 32.2-38.9 58.1-38.9h162.9c2.8 0 5 2.2 5 5s-2.2 5-5 5h-24c-21.8 0-40.5 12.6-48.9 32.8-8.3 20.1-3.9 42.3 11.5 57.7l144.1 144.2c10 10 23.3 15.5 37.4 15.5 28.4 0 51.5-23.1 51.5-51.5 0-2.8 2.2-5 5-5s5 2.2 5 5c.1 33.8-27.5 61.4-61.4 61.4z" fill="#fff"/></svg>