<?xml version="1.0" encoding="utf-8"?>
<!-- Generator: Adobe Illustrator 18.0.0, SVG Export Plug-In . SVG Version: 6.00 Build 0)  -->
<!DOCTYPE svg PUBLIC "-//W3C//DTD SVG 1.1//EN" "http://www.w3.org/Graphics/SVG/1.1/DTD/svg11.dtd" [
	<!ENTITY st0 "fill:none;stroke:#000000;stroke-width:80;stroke-linecap:round;stroke-linejoin:round;stroke-miterlimit:10;">
	<!ENTITY st1 "fill:none;stroke:#FFFFFF;stroke-width:10;stroke-linecap:round;stroke-linejoin:round;stroke-miterlimit:10;">
	<!ENTITY st2 "fill:url(#SVGID_1_);">
	<!ENTITY st3 "fill:#FFFFFF;">
	<!ENTITY st4 "fill:url(#SVGID_2_);">
	<!ENTITY st5 "fill:#FFA588;">
	<!ENTITY st6 "fill:#F1E425;">
	<!ENTITY st7 "fill:url(#SVGID_3_);">
]>
<svg version="1.1" id="Layer_1" xmlns="http://www.w3.org/2000/svg" xmlns:xlink="http://www.w3.org/1999/xlink" x="0px" y="0px"
	 viewBox="0 0 976.9 346.4" style="enable-background:new 0 0 976.9 346.4;" xml:space="preserve">
<path d="M933.9,207.1c-22.1,0-40,17.9-40,40c0,9.1-7.4,16.5-16.5,16.5c-4.8,0-9.3-1.9-12.6-5.2L720.6,114.2
	c-7.3-7.3-5.6-15.5-3.9-19.6s6.1-11.2,16.5-11.2h24c22.1,0,40-17.9,40-40c0-22.1-17.9-40-40-40H594.4c-20.5,0-40,6.2-56.3,17.8
	c-15.1,10.7-26.9,25.5-34.1,42.9c-7.2,17.3-9.3,36.2-6.1,54.4c3.4,19.7,12.9,37.8,27.4,52.3l62.3,62.3c7.3,7.3,5.6,15.3,3.9,19.4
	c-1.7,4.1-6.1,11-16.5,11h-2c-4.8,0-9.3-1.8-12.6-5.2l-81.7-81.6c-0.1-0.1-0.1-0.1-0.2-0.2L317.2,15.4c-15.6-15.6-40.9-15.6-56.6,0
	s-15.6,40.9,0,56.6l161.2,161.2c7.3,7.3,5.5,15.3,3.8,19.4c-1.7,4.1-6.1,11-16.5,11c-4.8,0-9.3-1.9-12.6-5.2l-226-226
	c-18.5-18.5-43.1-28.7-69.2-28.7c-20.5,0-40,6.1-56.3,17.6C29.8,32,18,46.8,10.8,64.1c-7.2,17.3-9.3,36.1-6.1,54.4
	c3.4,19.7,12.9,37.8,27.4,52.3l62.3,62.3c7.3,7.3,5.6,15.3,3.9,19.4c-1.7,4.1-6.1,11-16.5,11H53.6c-22.1,0-40,17.9-40,40
	s17.9,40,40,40h28.1c20.5,0,40-6,56.3-17.5c15.1-10.7,26.9-25.4,34.1-42.8c7.2-17.3,9.3-36.1,6.1-54.4
	c-3.4-19.7-12.9-37.8-27.4-52.3l-62.3-62.3c-7.3-7.3-5.6-15.4-3.9-19.5s6.1-11,16.5-11c4.8,0,9.3,1.9,12.6,5.2l226,226
	c18.5,18.5,43.1,28.7,69.2,28.7c20.5,0,40-6.1,56.3-17.6c9.6-6.8,17.8-15.2,24.4-24.8l13.8,13.7c18.5,18.5,43.1,28.6,69.2,28.6h2
	c20.5,0,40-6,56.3-17.5c15.1-10.7,26.9-25.4,34.1-42.8c7.2-17.3,9.3-36.1,6.1-54.4c-3.4-19.7-12.9-37.8-27.4-52.3l-62.3-62.3
	c-7.3-7.3-5.6-15.5-3.9-19.6c1.7-4.1,6.1-11.2,16.5-11.2H637c-2.2,11-2.3,23.4-0.3,34.9c3.4,19.7,12.9,37.9,27.4,52.3l144.1,144.2
	c18.5,18.5,43.1,28.7,69.2,28.7c53.2,0,96.5-43.3,96.5-96.5C973.9,225,956,207.1,933.9,207.1z M877.4,308.6
	c-16.8,0-32.6-6.5-44.5-18.4L688.8,146c-18.3-18.3-23.5-44.7-13.6-68.7c5.1-12.2,13.4-22,23.7-29H594.4c-21.8,0-40.5,12.6-48.9,32.8
	s-3.9,42.3,11.5,57.7l62.3,62.3c18.3,18.3,23.5,44.5,13.6,68.5c-9.9,23.9-32.2,38.8-58.1,38.8h-2c-16.8,0-32.6-6.5-44.5-18.3
	l-57.5-57.5c2.6,12.1,1.4,24.9-3.6,37.1c-9.9,23.9-32.2,38.8-58.1,38.8c-16.8,0-32.6-6.5-44.5-18.4l-226-226
	c-10-10-23.3-15.5-37.4-15.5c-21.8,0-40.5,12.5-48.9,32.6c-8.3,20.1-3.9,42.2,11.5,57.6l62.3,62.3c18.3,18.3,23.5,44.5,13.6,68.4
	c-9.9,23.9-32.2,38.7-58.1,38.7H53.6c-2.8,0-5-2.2-5-5s2.2-5,5-5h28.1c21.8,0,40.5-12.4,48.9-32.6s3.9-42.2-11.5-57.6L56.8,146
	c-18.3-18.3-23.5-44.6-13.6-68.5c9.9-23.9,32.2-38.8,58.1-38.8c16.8,0,32.6,6.5,44.5,18.4l226,226c10,10,23.3,15.5,37.4,15.5
	c21.8,0,40.5-12.5,48.9-32.6c8.3-20.1,4-42.1-11.4-57.5L285.4,47.2c-2-2-2-5.1,0-7.1c2-2,5.1-2,7.1,0l161.1,161.1
	c0,0,0.1,0.1,0.1,0.1l81.7,81.7c10,10,23.3,15.4,37.4,15.4h2c21.8,0,40.5-12.4,48.9-32.6c8.3-20.1,3.9-42.2-11.5-57.6L549.9,146
	c-18.3-18.3-23.5-44.7-13.6-68.7c9.9-23.9,32.2-38.9,58.1-38.9h162.9c2.8,0,5,2.2,5,5s-2.2,5-5,5h-24c-21.8,0-40.5,12.6-48.9,32.8
	c-8.3,20.1-3.9,42.3,11.5,57.7L840,283.1c10,10,23.3,15.5,37.4,15.5c28.4,0,51.5-23.1,51.5-51.5c0-2.8,2.2-5,5-5s5,2.2,5,5
	C938.9,281,911.3,308.6,877.4,308.6z"/>
</svg>
