<?xml version="1.0" encoding="utf-8"?>
<!-- Generator: Adobe Illustrator 18.0.0, SVG Export Plug-In . SVG Version: 6.00 Build 0)  -->
<!DOCTYPE svg PUBLIC "-//W3C//DTD SVG 1.1//EN" "http://www.w3.org/Graphics/SVG/1.1/DTD/svg11.dtd" [
	<!ENTITY st0 "fill:none;stroke:#000000;stroke-width:80;stroke-linecap:round;stroke-linejoin:round;stroke-miterlimit:10;">
	<!ENTITY st1 "fill:none;stroke:#FFFFFF;stroke-width:10;stroke-linecap:round;stroke-linejoin:round;stroke-miterlimit:10;">
	<!ENTITY st2 "fill:url(#SVGID_1_);">
	<!ENTITY st3 "fill:#FFFFFF;">
	<!ENTITY st4 "fill:url(#SVGID_2_);">
	<!ENTITY st5 "fill:#FFA588;">
	<!ENTITY st6 "fill:#F1E425;">
	<!ENTITY st7 "fill:url(#SVGID_3_);">
]>
<svg version="1.1" id="Layer_1" xmlns="http://www.w3.org/2000/svg" xmlns:xlink="http://www.w3.org/1999/xlink" x="0px" y="0px"
	 viewBox="0 0 976.9 346.4" style="enable-background:new 0 0 976.9 346.4;" xml:space="preserve">
<path style="&st3;" d="M933.8,206.6c-22.1,0-40,17.9-40,40c0,9.1-7.4,16.5-16.5,16.5c-4.8,0-9.3-1.9-12.6-5.2L720.5,113.8
	c-7.3-7.3-5.6-15.5-3.9-19.6S722.7,83,733.1,83h24c22.1,0,40-17.9,40-40c0-22.1-17.9-40-40-40H594.2c-20.5,0-40,6.2-56.3,17.8
	c-15.1,10.7-26.9,25.5-34.1,42.9c-7.2,17.3-9.3,36.2-6.1,54.4c3.4,19.7,12.9,37.8,27.4,52.3l62.3,62.3c7.3,7.3,5.6,15.3,3.9,19.4
	c-1.7,4.1-6.1,11-16.5,11h-2c-4.8,0-9.3-1.8-12.6-5.2l-81.7-81.6c-0.1-0.1-0.1-0.1-0.2-0.2L317,15c-15.6-15.6-40.9-15.6-56.6,0
	s-15.6,40.9,0,56.6l161.2,161.2c7.3,7.3,5.5,15.3,3.8,19.4c-1.7,4.1-6.1,11-16.5,11c-4.8,0-9.3-1.9-12.6-5.2l-226-226
	c-18.5-18.5-43.1-28.7-69.2-28.7c-20.5,0-40,6.1-56.3,17.6C29.6,31.6,17.8,46.4,10.7,63.7C3.5,81,1.4,99.8,4.5,118.1
	c3.4,19.7,12.9,37.8,27.4,52.3l62.3,62.3c7.3,7.3,5.6,15.3,3.9,19.4c-1.7,4.1-6.1,11-16.5,11H53.4c-22.1,0-40,17.9-40,40
	s17.9,40,40,40h28.1c20.5,0,40-6,56.3-17.5c15.1-10.7,26.9-25.4,34.1-42.8c7.2-17.3,9.3-36.1,6.1-54.4
	c-3.4-19.7-12.9-37.8-27.4-52.3l-62.3-62.3c-7.3-7.3-5.6-15.4-3.9-19.5s6.1-11,16.5-11c4.8,0,9.3,1.9,12.6,5.2l226,226
	c18.5,18.5,43.1,28.7,69.2,28.7c20.5,0,40-6.1,56.3-17.6c9.6-6.8,17.8-15.2,24.4-24.8l13.8,13.7c18.5,18.5,43.1,28.6,69.2,28.6h2
	c20.5,0,40-6,56.3-17.5c15.1-10.7,26.9-25.4,34.1-42.8c7.2-17.3,9.3-36.1,6.1-54.4c-3.4-19.7-12.9-37.8-27.4-52.3l-62.3-62.3
	c-7.3-7.3-5.6-15.5-3.9-19.6c1.7-4.1,6.1-11.2,16.5-11.2h42.6c-2.2,11-2.3,23.4-0.3,34.9c3.4,19.7,12.9,37.9,27.4,52.3L808,314.4
	c18.5,18.5,43.1,28.7,69.2,28.7c53.2,0,96.5-43.3,96.5-96.5C973.8,224.5,955.9,206.6,933.8,206.6z M877.3,308.1
	c-16.8,0-32.6-6.5-44.5-18.4L688.7,145.6c-18.3-18.3-23.5-44.7-13.6-68.7c5.1-12.2,13.4-22,23.7-29H594.2
	c-21.8,0-40.5,12.6-48.9,32.8s-3.9,42.3,11.5,57.7l62.3,62.3c18.3,18.3,23.5,44.5,13.6,68.5c-9.9,23.9-32.2,38.8-58.1,38.8h-2
	c-16.8,0-32.6-6.5-44.5-18.3l-57.5-57.5c2.6,12.1,1.4,24.9-3.6,37.1c-9.9,23.9-32.2,38.8-58.1,38.8c-16.8,0-32.6-6.5-44.5-18.4
	l-226-226c-10-10-23.3-15.5-37.4-15.5c-21.8,0-40.5,12.5-48.9,32.6c-8.3,20.1-3.9,42.2,11.5,57.6l62.3,62.3
	c18.3,18.3,23.5,44.5,13.6,68.4c-9.9,23.9-32.2,38.7-58.1,38.7H53.4c-2.8,0-5-2.2-5-5s2.2-5,5-5h28.1c21.8,0,40.5-12.4,48.9-32.6
	s3.9-42.2-11.5-57.6l-62.3-62.2C38.3,127.3,33.1,101,43,77.1c9.9-23.9,32.2-38.8,58.1-38.8c16.8,0,32.6,6.5,44.5,18.4l226,226
	c10,10,23.3,15.5,37.4,15.5c21.8,0,40.5-12.5,48.9-32.6c8.3-20.1,4-42.1-11.4-57.5L285.2,46.8c-2-2-2-5.1,0-7.1c2-2,5.1-2,7.1,0
	l161.1,161.1c0,0,0.1,0.1,0.1,0.1l81.7,81.7c10,10,23.3,15.4,37.4,15.4h2c21.8,0,40.5-12.4,48.9-32.6c8.3-20.1,3.9-42.2-11.5-57.6
	l-62.3-62.2c-18.3-18.3-23.5-44.7-13.6-68.7C546.1,53,568.3,38,594.2,38h162.9c2.8,0,5,2.2,5,5s-2.2,5-5,5h-24
	c-21.8,0-40.5,12.6-48.9,32.8c-8.3,20.1-3.9,42.3,11.5,57.7l144.1,144.2c10,10,23.3,15.5,37.4,15.5c28.4,0,51.5-23.1,51.5-51.5
	c0-2.8,2.2-5,5-5s5,2.2,5,5C938.8,280.5,911.2,308.1,877.3,308.1z"/>
</svg>
